<svg xmlns="http://www.w3.org/2000/svg" width="32" height="32" viewBox="0 0 32 32">
    <path fill="#FFF" fill-rule="nonzero" d="M31.333 16h-1.52L26.48 6h2.853a.667.667 0 0 0 0-1.334H26v-.213a.667.667 0 0 0-1.267 0l-.066.213h-8v-4a.667.667 0 0 0-1.334 0v4H7.367l-.034-.213a.667.667 0 0 0-1.266 0L6 4.666H2.667a.667.667 0 0 0 0 1.334H5.52L2.187 16H.667a.667.667 0 0 0-.667.666c0 .247.04 6 3.333 6H10c3.293 0 3.333-5.753 3.333-6a.667.667 0 0 0-.666-.666h-1.52L7.813 6h7.52v19.333H9.927a2.273 2.273 0 0 0-2.214 1.727l-1.046 4.113c-.05.2-.007.411.12.573.131.167.334.261.546.254h17.334c.205 0 .4-.093.526-.254a.667.667 0 0 0 .12-.573l-1.026-4.113a2.273 2.273 0 0 0-2.214-1.727h-5.406V6h7.52l-3.334 10h-1.52a.667.667 0 0 0-.666.666c0 .247.04 6 3.333 6h6.667c3.293 0 3.333-5.753 3.333-6a.667.667 0 0 0-.667-.666zm-27.74 0l3.074-9.227L9.74 16H3.593zm21.74-9.227L28.407 16H22.26l3.073-9.227z"/>
</svg>
