<svg xmlns="http://www.w3.org/2000/svg" width="32" height="32" viewBox="0 0 32 32">
    <path fill="#FFF" fill-rule="nonzero" d="M28.695.001L28.69 0H7.172A3.866 3.866 0 0 0 3.31 3.862V25.38H.552a.552.552 0 0 0-.552.552v2.759A3.314 3.314 0 0 0 3.31 32h19.31a3.867 3.867 0 0 0 3.863-3.862V7.172h4.965A.552.552 0 0 0 32 6.621V3.31A3.31 3.31 0 0 0 28.695 0zM3.31 30.897a2.21 2.21 0 0 1-2.207-2.207v-2.207H19.31v2.207c0 .847.32 1.62.846 2.207H3.31zM30.897 6.069h-4.414v-2.64c0-1.192.873-2.209 1.988-2.315a2.208 2.208 0 0 1 2.426 2.196V6.07zm-8.828 3.31a.552.552 0 0 1-.552.552H8.276a.552.552 0 0 1 0-1.103h13.241c.305 0 .552.247.552.551zm0 3.31a.552.552 0 0 1-.552.552H8.276a.552.552 0 0 1 0-1.103h13.241c.305 0 .552.247.552.552zm0 3.311a.552.552 0 0 1-.552.552H8.276a.552.552 0 0 1 0-1.104h13.241c.305 0 .552.247.552.552zm0 3.31a.552.552 0 0 1-.552.552H8.276a.552.552 0 0 1 0-1.103h13.241c.305 0 .552.247.552.551z"/>
</svg>
