<svg xmlns="http://www.w3.org/2000/svg" width="32" height="26" viewBox="0 0 32 26">
    <path fill="#FFF" fill-rule="evenodd" d="M3.775.33a.708.708 0 0 0-.703.708V2.73H1.041a.708.708 0 0 0-.708.707V24.28c0 .39.317.708.708.708h12.348a.7.7 0 0 0 .003 0l2.407.825c.149.05.31.05.459 0l2.406-.825h12.295c.39 0 .708-.317.708-.708V3.437a.708.708 0 0 0-.708-.707h-1.974V1.038a.708.708 0 0 0-.98-.653L16.029 5.36 4.051.385a.708.708 0 0 0-.276-.054zM1.749 4.146h1.323v16.799c0 .302.192.57.478.669l5.715 1.96H1.75V4.145zm27.236 0h1.267v19.428h-7.46l5.715-1.96a.708.708 0 0 0 .478-.67V4.146zm-9.86 4.561l5.232-2.212a.71.71 0 0 1 .98.662.71.71 0 0 1-.452.65l-5.232 2.213a.71.71 0 0 1-.98-.663.71.71 0 0 1 .452-.65zm0 4.486l5.232-2.212a.71.71 0 0 1 .98.663.71.71 0 0 1-.452.65l-5.232 2.212a.713.713 0 0 1-.777-.156.71.71 0 0 1 .014-1.007.708.708 0 0 1 .235-.15zm0 4.754l5.232-2.213a.713.713 0 0 1 .776.157.71.71 0 0 1-.014 1.007.708.708 0 0 1-.234.15l-5.232 2.212a.713.713 0 0 1-.777-.157.71.71 0 0 1 .014-1.007.708.708 0 0 1 .235-.15zm-6.364-9.24a.71.71 0 0 1 .249 1.157.71.71 0 0 1-.777.156L7.001 7.807a.71.71 0 0 1-.249-1.157.71.71 0 0 1 .777-.156l5.232 2.212zm0 4.486a.708.708 0 1 1-.528 1.313l-5.232-2.212a.708.708 0 1 1 .528-1.313l5.232 2.212zm0 4.754a.708.708 0 1 1-.528 1.313l-5.232-2.213a.708.708 0 1 1 .528-1.313l5.232 2.213z"/>
</svg>
