<svg xmlns="http://www.w3.org/2000/svg" width="33" height="31" viewBox="0 0 33 31">
    <g fill="#FFF" fill-rule="evenodd" stroke="#FFF" stroke-width=".5">
        <path d="M16.302 21.164v8.561a.523.523 0 0 0 1.045 0v-8.56a.523.523 0 0 0-1.045 0zM23.953 19.001a.523.523 0 0 0-.522-.522H10.217a.523.523 0 0 0 0 1.045h13.214a.523.523 0 0 0 .522-.523z"/>
        <path fill-rule="nonzero" d="M19.962 4.1c0-1.71-1.39-3.1-3.1-3.1-1.71 0-3.1 1.39-3.1 3.1 0 1.71 1.39 3.1 3.1 3.1 1.71 0 3.1-1.39 3.1-3.1zm-5.155 0c0-1.133.922-2.055 2.055-2.055 1.134 0 2.055.922 2.055 2.055a2.057 2.057 0 0 1-2.055 2.056A2.058 2.058 0 0 1 14.807 4.1z"/>
        <path d="M12.685 11.49v5.294c0 .288.234.523.523.523l7.233.02a.523.523 0 0 0 .522-.522v-5.314a3.276 3.276 0 0 0-3.275-3.275h-1.731a3.277 3.277 0 0 0-3.272 3.275z"/>
        <path fill-rule="nonzero" d="M29.567 7.27a3.085 3.085 0 0 0-3.082 3.081c0 1.7 1.382 3.082 3.082 3.082 1.699 0 3.081-1.382 3.081-3.082S31.266 7.27 29.567 7.27zm0 5.118a2.039 2.039 0 0 1-2.037-2.037c0-1.123.913-2.036 2.037-2.036 1.123 0 2.036.913 2.036 2.036a2.04 2.04 0 0 1-2.036 2.037zM29.787 14.12h-.713a2.855 2.855 0 0 0-2.851 2.852v3.938h-1.676a3.134 3.134 0 0 0-3.13 3.13v4.898c0 .719.584 1.304 1.303 1.304h2.114c.718 0 1.303-.585 1.303-1.304V25.8h3.445a3.06 3.06 0 0 0 3.058-3.057v-5.771a2.855 2.855 0 0 0-2.853-2.852zM4.082 13.433c1.7 0 3.082-1.382 3.082-3.082S5.78 7.269 4.082 7.269A3.085 3.085 0 0 0 1 10.351c0 1.7 1.382 3.082 3.082 3.082zm0-5.119c1.123 0 2.037.914 2.037 2.037a2.039 2.039 0 0 1-2.037 2.037 2.039 2.039 0 0 1-2.037-2.037c0-1.123.914-2.037 2.037-2.037zM8.815 30.242h2.114c.719 0 1.303-.585 1.303-1.304V24.04a3.134 3.134 0 0 0-3.13-3.13H7.426v-3.938a2.855 2.855 0 0 0-2.851-2.852H3.86a2.855 2.855 0 0 0-2.851 2.852v5.77A3.06 3.06 0 0 0 4.067 25.8h3.445v3.138c0 .72.585 1.304 1.303 1.304z"/>
    </g>
</svg>
